<mxfile host="app.diagrams.net" modified="2023-05-13T06:49:02.965Z" agent="Mozilla/5.0 (Windows NT 10.0; Win64; x64) AppleWebKit/537.36 (KHTML, like Gecko) Chrome/113.0.0.0 Safari/537.36" etag="y86YJmhaN7C75UxcOAUR" version="21.3.0" type="device">
  <diagram name="Page-1" id="MqEHJxqcGR0iH7Ui8UXM">
    <mxGraphModel dx="-10" dy="462" grid="1" gridSize="10" guides="1" tooltips="1" connect="1" arrows="1" fold="1" page="1" pageScale="1" pageWidth="850" pageHeight="1100" math="0" shadow="0">
      <root>
        <mxCell id="0" />
        <mxCell id="1" parent="0" />
        <mxCell id="82ItoaPyIO3ZiafDyYQU-25" style="edgeStyle=orthogonalEdgeStyle;rounded=0;orthogonalLoop=1;jettySize=auto;html=1;exitX=0.5;exitY=0;exitDx=0;exitDy=0;entryX=0.5;entryY=0;entryDx=0;entryDy=0;" edge="1" parent="1" source="82ItoaPyIO3ZiafDyYQU-23" target="82ItoaPyIO3ZiafDyYQU-24">
          <mxGeometry relative="1" as="geometry" />
        </mxCell>
        <mxCell id="82ItoaPyIO3ZiafDyYQU-23" value="favourite_id" style="rounded=0;whiteSpace=wrap;html=1;fontStyle=5;fontFamily=Courier New;labelBackgroundColor=none;" vertex="1" parent="1">
          <mxGeometry x="960" y="1070" width="120" height="60" as="geometry" />
        </mxCell>
        <mxCell id="82ItoaPyIO3ZiafDyYQU-24" value="reason" style="rounded=0;whiteSpace=wrap;html=1;fontFamily=Courier New;labelBackgroundColor=none;" vertex="1" parent="1">
          <mxGeometry x="1080" y="1070" width="120" height="60" as="geometry" />
        </mxCell>
      </root>
    </mxGraphModel>
  </diagram>
</mxfile>
